<svg width="18" height="18" viewBox="0 0 18 18" fill="none" xmlns="http://www.w3.org/2000/svg">
<path d="M6.8125 16.5C7.74062 16.5 7.4375 16.5 9 16.5C10.5625 16.5 16.1788 16.5 17.75 16.5C17.75 14.9375 17.75 5.875 17.75 5.02625C17.75 5.02625 17.165 4.38125 16.52 5.02625C15.875 5.67125 14.8713 11.5 12.75 11.5C11.8219 11.5 11.1537 10.5644 10.4462 9.57438C9.62625 8.42625 8.69625 7.125 7.125 7.125C4.50875 7.125 2.47187 11.7525 1.5 14.4762V0.25H0.25V16.5C0.250331 16.8314 0.382133 17.1492 0.616482 17.3835C0.850831 17.6179 1.16858 17.7497 1.5 17.75H17.75V16.5H2.1525C5.25 16.5 4.915 16.5 6.8125 16.5Z" fill="#212529"/>
</svg>
