<svg width="20" height="20" viewBox="0 0 20 20" fill="none" xmlns="http://www.w3.org/2000/svg">
<path fill-rule="evenodd" clip-rule="evenodd" d="M9.99967 0.833496C4.93717 0.833496 0.833008 4.93766 0.833008 10.0002C0.833008 15.0627 4.93717 19.1668 9.99967 19.1668C15.0622 19.1668 19.1663 15.0627 19.1663 10.0002C19.1663 4.93766 15.0622 0.833496 9.99967 0.833496ZM10.833 13.3335C10.833 13.5545 10.7452 13.7665 10.5889 13.9228C10.4327 14.079 10.2207 14.1668 9.99967 14.1668C9.77866 14.1668 9.5667 14.079 9.41042 13.9228C9.25414 13.7665 9.16634 13.5545 9.16634 13.3335V10.8335H6.66634C6.44533 10.8335 6.23337 10.7457 6.07709 10.5894C5.92081 10.4331 5.83301 10.2212 5.83301 10.0002C5.83301 9.77915 5.92081 9.56719 6.07709 9.41091C6.23337 9.25463 6.44533 9.16683 6.66634 9.16683H9.16634V6.66683C9.16634 6.44582 9.25414 6.23385 9.41042 6.07757C9.5667 5.92129 9.77866 5.8335 9.99967 5.8335C10.2207 5.8335 10.4327 5.92129 10.5889 6.07757C10.7452 6.23385 10.833 6.44582 10.833 6.66683V9.16683H13.333C13.554 9.16683 13.766 9.25463 13.9223 9.41091C14.0785 9.56719 14.1663 9.77915 14.1663 10.0002C14.1663 10.2212 14.0785 10.4331 13.9223 10.5894C13.766 10.7457 13.554 10.8335 13.333 10.8335H10.833V13.3335Z" fill="#005594"/>
</svg>
