<svg width="18" height="21" viewBox="0 0 18 21" fill="none" xmlns="http://www.w3.org/2000/svg">
<path d="M8.99992 0.9961C10.9465 0.993541 12.8177 1.74894 14.2169 3.10226C15.6162 4.45557 16.4335 6.30048 16.4959 8.2461L16.4999 8.4961V12.5931L17.8799 15.7491C17.9632 15.9393 17.9977 16.1472 17.9805 16.354C17.9632 16.5609 17.8946 16.7602 17.781 16.9339C17.6673 17.1076 17.5121 17.2503 17.3295 17.349C17.1469 17.4476 16.9425 17.4992 16.7349 17.4991L11.9999 17.5021C12.0009 18.2831 11.6974 19.0337 11.1537 19.5944C10.61 20.1551 9.86911 20.4817 9.08846 20.5047C8.3078 20.5278 7.54893 20.2455 6.97313 19.7178C6.39732 19.1902 6.04998 18.4588 6.00492 17.6791L5.99992 17.4991H1.27492C1.06773 17.4989 0.863846 17.4472 0.681575 17.3486C0.499303 17.2501 0.344354 17.1079 0.230641 16.9347C0.116928 16.7615 0.0480127 16.5628 0.0300836 16.3564C0.0121546 16.1499 0.0457733 15.9423 0.127921 15.7521L1.49992 12.5941V8.4961C1.49992 4.3411 4.85192 0.9961 8.99992 0.9961ZM10.4999 17.5001L7.49992 17.5021C7.49985 17.8874 7.64806 18.258 7.91381 18.5369C8.17957 18.8159 8.54249 18.982 8.92734 19.0006C9.31219 19.0192 9.68946 18.8891 9.98093 18.6371C10.2724 18.3851 10.4557 18.0306 10.4929 17.6471L10.4999 17.5001ZM8.99992 2.4961C5.67992 2.4961 2.99992 5.1701 2.99992 8.4961V12.9061L1.65592 16.0001H16.3529L14.9999 12.9071V8.5091L14.9969 8.2841C14.945 6.72935 14.29 5.25583 13.1707 4.17552C12.0513 3.09521 10.5555 2.49289 8.99992 2.4961Z" fill="#495057"/>
</svg>
