<svg width="25" height="24" viewBox="0 0 25 24" fill="none" xmlns="http://www.w3.org/2000/svg">
<path d="M2.5 12C2.5 17.523 6.977 22 12.5 22C18.023 22 22.5 17.523 22.5 12C22.5 6.477 18.023 2 12.5 2C6.977 2 2.5 6.477 2.5 12Z" stroke="#495057" stroke-width="1.5" stroke-linecap="round" stroke-linejoin="round"/>
<path d="M13.4999 2.05005C13.4999 2.05005 16.4999 6.00005 16.4999 12C16.4999 18 13.4999 21.9501 13.4999 21.9501M11.4999 21.9501C11.4999 21.9501 8.49988 18 8.49988 12C8.49988 6.00005 11.4999 2.05005 11.4999 2.05005M3.12988 15.5H21.8699M3.12988 8.50005H21.8699" stroke="#495057" stroke-width="1.5" stroke-linecap="round" stroke-linejoin="round"/>
</svg>
